# xmcd
#
# Track frame offsets:
#	150
#	16832
#	29316
#	43215
#	57695
#	69603
#	89260
#	109295
#	128068
#	140377
#	156653
#	171958
#	184549
#	198357
#
# Disc length: 2842 seconds
#
# Revision: 1
# Processed by: cddbd v1.5.2PL0 Copyright (c) Steve Scherf et al.
# Submitted via: audiograbber 1.83.01
#
DISCID=ca0b180e
DTITLE=Marianne and Michael - Beliebte Stars der Volksmusik
DYEAR=1900
DGENRE=
TTITLE0=Der Bua passt nur in d`Lederhosen nei
TTITLE1=Der treue Husar
TTITLE2=Die kloane Tür zum Paradies
TTITLE3=Feste feiern
TTITLE4=G`sund blei`n, jung blei`n
TTITLE5=Ich lieb die Heimat, meine Berge
TTITLE6=Im Verein da ist`s am schönsten
TTITLE7=La Pastorella
TTITLE8=Ein Jäger ging zum Jagen
TTITLE9=Hüttenzauber nennt ma des
TTITLE10=Seid`s nett zueinander
TTITLE11=Wir bringen euch fröhliche Lieder
TTITLE12=Wann fangt denn endlich d`Musik an
TTITLE13=Zillertaler Hochzeitsmarsch
EXTD=
EXTT0=
EXTT1=
EXTT2=
EXTT3=
EXTT4=
EXTT5=
EXTT6=
EXTT7=
EXTT8=
EXTT9=
EXTT10=
EXTT11=
EXTT12=
EXTT13=
PLAYORDER=
